<?xml version="1.0" encoding="utf-8"?>
<!-- Generator: Adobe Illustrator 26.2.1, SVG Export Plug-In . SVG Version: 6.00 Build 0)  -->
<svg version="1.1" id="Layer_2_00000033355345773737899550000001986635162567619247_"
	 xmlns="http://www.w3.org/2000/svg" xmlns:xlink="http://www.w3.org/1999/xlink" x="0px" y="0px" viewBox="0 0 300 300"
	 style="enable-background:new 0 0 300 300;" xml:space="preserve">
<style type="text/css">
	.st0{fill:#0E0F18;}
</style>
<path class="st0" d="M150,0L150,0C67.2,0,0,67.2,0,150s67.2,150,150,150s150-67.2,150-150S232.8,0,150,0z M149.9,283.6L149.9,283.6
	c-73.9,0-134-60.1-134-134s60.1-134,134-134s134,60.1,134,134S223.8,283.6,149.9,283.6z"/>
<path class="st0" d="M149.9,24.8c-68.8,0-124.8,56-124.8,124.8s56,124.8,124.8,124.8s124.8-56,124.8-124.8S218.8,24.8,149.9,24.8z
	 M124.3,98.6c0-0.3,0.3-0.6,0.6-0.6h5.3c0.3,0,0.6,0.3,0.6,0.6v34c0,0.3-0.3,0.6-0.6,0.6h-5.3c-0.3,0-0.6-0.3-0.6-0.6V98.6z
	 M104.1,91.4c0-0.3,0.3-0.6,0.6-0.6h18.5c0.3,0,0.6,0.3,0.6,0.6v5.3c0,0.3-0.3,0.6-0.6,0.6h-18.5c-0.3,0-0.6-0.3-0.6-0.6V91.4z
	 M104.1,134.5c0-0.3,0.3-0.6,0.6-0.6h18.5c0.3,0,0.6,0.3,0.6,0.6v5.3c0,0.3-0.3,0.6-0.6,0.6h-18.5c-0.3,0-0.6-0.3-0.6-0.6V134.5z
	 M97.1,132.6v-34c0-0.3,0.3-0.6,0.6-0.6h5.3c0.3,0,0.6,0.3,0.6,0.6v34c0,0.3-0.3,0.6-0.6,0.6h-5.3C97.4,133.1,97.1,132.9,97.1,132.6
	z M195.3,210.4L195.3,210.4L195.3,210.4c-14.4,5-29.5,7.6-44.8,7.6s-31.1-2.7-45.8-7.8c-1.9-0.6-2.8-2.7-2.1-4.5
	c0.6-1.9,2.7-2.8,4.5-2.1c13.9,5,28.5,7.5,43.4,7.5c14.9,0,28.9-2.4,42.5-7.1c1.9-0.6,3.8,0.4,4.5,2.1
	C198.1,207.8,197.1,209.8,195.3,210.4z M203,118.2c0,0.3-0.3,0.6-0.6,0.6h-34c-0.3,0-0.6-0.3-0.6-0.6v-5.3c0-0.3,0.3-0.6,0.6-0.6h34
	c0.3,0,0.6,0.3,0.6,0.6V118.2z"/>
</svg>
