<?xml version="1.0" encoding="utf-8"?>
<!-- Generator: Adobe Illustrator 26.2.1, SVG Export Plug-In . SVG Version: 6.00 Build 0)  -->
<svg version="1.1" id="Layer_1" xmlns="http://www.w3.org/2000/svg" xmlns:xlink="http://www.w3.org/1999/xlink" x="0px" y="0px"
	 viewBox="0 0 64 64" style="enable-background:new 0 0 64 64;" xml:space="preserve">
<style type="text/css">
	.st0{fill:#0F0F0F;}
</style>
<path id="Shape" d="M32,8c13.3,0,24,10.7,24,24S45.3,56,32,56S8,45.3,8,32S18.7,8,32,8z M32,12c-11,0-20,9-20,20s9,20,20,20
	s20-9,20-20S43,12,32,12z"/>
<path class="st0" d="M31.5,16.8c-1.2,0-2.2,1-2.2,2.2v14.3c0,0,0,0.6,0.3,1c0.2,0.4,0.5,0.7,0.9,0.9l10.2,5.9c1.1,0.6,2.4,0.2,3-0.8
	c0.6-1.1,0.2-2.4-0.8-3L33.7,32V19C33.7,17.8,32.7,16.8,31.5,16.8z"/>
</svg>
