<?xml version="1.0" encoding="utf-8"?>
<!-- Generator: Adobe Illustrator 26.2.1, SVG Export Plug-In . SVG Version: 6.00 Build 0)  -->
<svg version="1.1" id="Layer_1" xmlns="http://www.w3.org/2000/svg" xmlns:xlink="http://www.w3.org/1999/xlink" x="0px" y="0px"
	 viewBox="0 0 64 64" style="enable-background:new 0 0 64 64;" xml:space="preserve">
<style type="text/css">
	.st0{fill:#0E0F18;}
</style>
<g>
	<path d="M26.1,5.9c0.5-0.1,1-0.2,1.5-0.3l-0.9-4.4c-0.1-0.4-0.5-0.7-0.9-0.6c-0.4,0.1-0.7,0.5-0.6,0.9L26.1,5.9z"/>
	<path d="M12.6,13.7c0.3-0.4,0.7-0.7,1.1-1.1l-3.2-3.2l0,0c-0.3-0.3-0.8-0.3-1.1,0c-0.3,0.3-0.3,0.8,0,1.1L12.6,13.7z"/>
	<path d="M5.6,15.2l3.8,2.5c0.3-0.4,0.6-0.9,0.8-1.3L6.5,14c-0.3-0.2-0.8-0.1-1.1,0.2C5.2,14.5,5.3,15,5.6,15.2z"/>
	<path d="M21.1,7.6C21.6,7.4,22,7.2,22.5,7l-1.7-4.2l0,0c-0.2-0.4-0.6-0.6-1-0.4c-0.4,0.2-0.6,0.6-0.4,1L21.1,7.6z"/>
	<path d="M16.5,10.2c0.4-0.3,0.8-0.6,1.3-0.8l-2.5-3.8c-0.2-0.3-0.7-0.4-1.1-0.2c-0.3,0.2-0.4,0.7-0.2,1.1L16.5,10.2z"/>
	<path d="M5.3,32.8c0-0.3,0-0.6,0-0.8c0-0.2,0-0.4,0-0.6H0.8c-0.4,0-0.8,0.3-0.8,0.7c0,0.4,0.3,0.7,0.8,0.7H5.3z"/>
	<path d="M1.2,26.7l4.5,0.9c0.1-0.5,0.2-1,0.3-1.5l-4.5-0.9c-0.4-0.1-0.8,0.2-0.9,0.6C0.5,26.2,0.8,26.6,1.2,26.7z"/>
	<path d="M2.9,20.7l4.2,1.8C7.2,22,7.4,21.5,7.6,21l-4.2-1.8c-0.4-0.2-0.8,0-1,0.4C2.3,20.1,2.5,20.5,2.9,20.7z"/>
	<path d="M51.4,13.7l3.2-3.2c0.3-0.3,0.3-0.8,0-1.1c-0.3-0.3-0.8-0.3-1.1,0l-3.2,3.2C50.7,12.9,51.1,13.3,51.4,13.7z"/>
	<path d="M54.6,17.8l3.8-2.5c0.3-0.2,0.4-0.7,0.2-1.1c-0.2-0.3-0.7-0.4-1.1-0.2l-3.8,2.5C54.1,16.9,54.3,17.4,54.6,17.8z"/>
	<path d="M56.9,22.5l4.2-1.8c0.4-0.2,0.6-0.6,0.4-1l0,0c-0.2-0.4-0.6-0.6-1-0.4L56.4,21C56.6,21.5,56.8,22,56.9,22.5z"/>
	<path d="M58.3,27.6l4.5-0.9c0.4-0.1,0.7-0.5,0.6-0.9c-0.1-0.4-0.5-0.7-0.9-0.6L58,26.1C58.1,26.6,58.2,27.1,58.3,27.6z"/>
	<path d="M43,7.6l1.8-4.2c0.2-0.4,0-0.8-0.4-1c-0.4-0.2-0.8,0-1,0.4L41.5,7C42,7.2,42.5,7.4,43,7.6z"/>
	<path d="M37.9,5.9l0.9-4.4c0.1-0.4-0.2-0.8-0.6-0.9s-0.8,0.2-0.9,0.6l-0.9,4.4C37,5.7,37.5,5.8,37.9,5.9z"/>
	<path d="M47.5,10.2L50,6.5c0.2-0.3,0.1-0.8-0.2-1.1l0,0c-0.3-0.2-0.8-0.1-1.1,0.2l-2.5,3.8C46.6,9.7,47.1,9.9,47.5,10.2z"/>
	<path d="M32,5.3c0.3,0,0.5,0,0.8,0V0.8c0-0.4-0.3-0.8-0.7-0.8c-0.4,0-0.7,0.3-0.7,0.8v4.5C31.6,5.3,31.8,5.3,32,5.3z"/>
	<path d="M9.4,46.2l-3.8,2.6c-0.3,0.2-0.4,0.7-0.2,1.1c0.2,0.3,0.7,0.4,1.1,0.2l3.8-2.6C10,47,9.7,46.6,9.4,46.2z"/>
	<path d="M51.4,50.3c-0.3,0.4-0.7,0.7-1.1,1.1l3.2,3.2c0.3,0.3,0.8,0.3,1.1,0s0.3-0.8,0-1.1L51.4,50.3z"/>
	<path d="M58.4,48.8l-3.8-2.6c-0.3,0.4-0.6,0.9-0.8,1.3l3.8,2.6c0.3,0.2,0.8,0.1,1.1-0.2C58.8,49.5,58.7,49,58.4,48.8z"/>
	<path d="M47.5,53.7c-0.4,0.3-0.8,0.6-1.3,0.8l2.6,3.8c0.2,0.3,0.7,0.4,1.1,0.2c0.3-0.2,0.4-0.7,0.2-1.1L47.5,53.7z"/>
	<path d="M42.9,56.4c-0.5,0.2-0.9,0.4-1.4,0.6l1.7,4.2c0.2,0.4,0.6,0.6,1,0.4c0.4-0.2,0.6-0.6,0.4-1L42.9,56.4z"/>
	<path d="M61.1,43.3l-4.2-1.8c-0.2,0.5-0.4,0.9-0.6,1.4l4.2,1.8c0.4,0.2,0.8,0,1-0.4S61.5,43.5,61.1,43.3z"/>
	<path d="M5.7,36.4l-4.5,0.9c-0.4,0.1-0.7,0.5-0.6,0.9s0.5,0.7,0.9,0.6L6,37.9C5.9,37.4,5.8,36.9,5.7,36.4z"/>
	<path d="M62.8,37.3l-4.5-0.9c-0.1,0.5-0.2,1-0.3,1.5l4.5,0.9c0.4,0.1,0.8-0.2,0.9-0.6C63.5,37.8,63.2,37.4,62.8,37.3z"/>
	<path d="M63.2,31.2h-4.6c0,0.3,0,0.5,0,0.8c0,0.2,0,0.5,0,0.7h4.6c0.4,0,0.8-0.3,0.8-0.7C64,31.5,63.7,31.2,63.2,31.2z"/>
	<path d="M12.6,50.3l-3.2,3.2c-0.3,0.3-0.3,0.8,0,1.1c0.3,0.3,0.8,0.3,1.1,0l3.2-3.2C13.3,51,13,50.7,12.6,50.3z"/>
	<path d="M7.1,41.5l-4.2,1.7c-0.4,0.2-0.6,0.6-0.4,1c0.2,0.4,0.6,0.6,1,0.4l4.2-1.7C7.4,42.4,7.2,42,7.1,41.5z"/>
	<path d="M16.5,53.7L14,57.5c-0.2,0.3-0.1,0.8,0.2,1.1c0.3,0.2,0.8,0.1,1.1-0.2l2.6-3.8C17.4,54.3,17,54,16.5,53.7z"/>
	<path d="M32,58.7c-0.2,0-0.4,0-0.7,0v4.6c0,0.4,0.3,0.8,0.7,0.8c0.4,0,0.7-0.3,0.7-0.8v-4.6C32.5,58.7,32.3,58.7,32,58.7z"/>
	<path d="M37.9,58c-0.5,0.1-1,0.2-1.5,0.3l0.9,4.5c0.1,0.4,0.5,0.7,0.9,0.6c0.4-0.1,0.7-0.5,0.6-0.9L37.9,58z"/>
	<path d="M21.1,56.3l-1.8,4.2c-0.2,0.4,0,0.8,0.4,1c0.4,0.2,0.8,0,1-0.4l1.8-4.2C22,56.7,21.5,56.5,21.1,56.3z"/>
	<path d="M26.1,58l-0.9,4.5c-0.1,0.4,0.2,0.8,0.6,0.9c0.4,0.1,0.8-0.2,0.9-0.6l0.9-4.5C27.1,58.2,26.6,58.1,26.1,58z"/>
</g>
<path class="st0" d="M27.7,23.4c0-0.1,0.1-0.1,0.1-0.1h0.9c0.1,0,0.1,0.1,0.1,0.1v5.7c0,0.1-0.1,0.1-0.1,0.1h-0.9
	c-0.1,0-0.1-0.1-0.1-0.1V23.4z"/>
<path class="st0" d="M24.3,22.2c0-0.1,0.1-0.1,0.1-0.1h3.1c0.1,0,0.1,0.1,0.1,0.1v0.9c0,0.1-0.1,0.1-0.1,0.1h-3.1
	c-0.1,0-0.1-0.1-0.1-0.1L24.3,22.2L24.3,22.2z"/>
<path class="st0" d="M24.3,29.4c0-0.1,0.1-0.1,0.1-0.1h3.1c0.1,0,0.1,0.1,0.1,0.1v0.9c0,0.1-0.1,0.1-0.1,0.1h-3.1
	c-0.1,0-0.1-0.1-0.1-0.1L24.3,29.4L24.3,29.4z"/>
<path class="st0" d="M23.2,29.1v-5.7c0-0.1,0.1-0.1,0.1-0.1h0.9c0.1,0,0.1,0.1,0.1,0.1v5.7c0,0.1-0.1,0.1-0.1,0.1h-0.9
	C23.2,29.2,23.2,29.1,23.2,29.1z"/>
<path class="st0" d="M39.6,42L39.6,42L39.6,42c-2.4,0.8-4.9,1.3-7.5,1.3s-5.2-0.5-7.6-1.3c-0.3-0.1-0.5-0.5-0.3-0.7
	c0.1-0.3,0.5-0.5,0.7-0.3c2.3,0.8,4.8,1.3,7.2,1.3s4.8-0.4,7.1-1.2c0.3-0.1,0.6,0.1,0.7,0.4C40,41.6,39.9,41.9,39.6,42z"/>
<path class="st0" d="M40.8,26.7c0,0.1-0.1,0.1-0.1,0.1h-5.7c-0.1,0-0.1-0.1-0.1-0.1v-0.9c0-0.1,0.1-0.1,0.1-0.1h5.7
	c0.1,0,0.1,0.1,0.1,0.1V26.7z"/>
<path d="M32,8C18.7,8,8,18.7,8,32s10.7,24,24,24s24-10.7,24-24S45.3,8,32,8z M32,52c-11,0-20-9-20-20s9-20,20-20s20,9,20,20
	S43,52,32,52z"/>
</svg>
