<?xml version="1.0" encoding="UTF-8"?>
<svg width="64px" height="64px" viewBox="0 0 64 64" version="1.1" xmlns="http://www.w3.org/2000/svg" xmlns:xlink="http://www.w3.org/1999/xlink">
    <title>capabilities/phase</title>
    <g id="capabilities/phase" stroke="none" stroke-width="1" fill="none" fill-rule="evenodd">
        <path d="M32,8 C45.254834,8 56,18.745166 56,32 C56,45.254834 45.254834,56 32,56 C18.745166,56 8,45.254834 8,32 C8,18.745166 18.745166,8 32,8 Z M32,12 C20.954305,12 12,20.954305 12,32 C12,43.045695 20.954305,52 32,52 C43.045695,52 52,43.045695 52,32 C52,20.954305 43.045695,12 32,12 Z M25,25 C28.3601549,25 31.2127637,26.9669862 33.5078764,30.6330562 L33.7149859,30.9710085 C35.385183,33.7546703 37.1286445,35 39,35 C40.7592487,35 42.0892768,33.8916432 43.1430466,31.2572186 C43.5532734,30.2316516 44.7172143,29.7328198 45.7427814,30.1430466 C46.7683484,30.5532734 47.2671802,31.7172143 46.8569534,32.7427814 C45.2440566,36.7750234 42.5740847,39 39,39 C35.6398451,39 32.7872363,37.0330138 30.4921236,33.3669438 L30.2850141,33.0289915 C28.614817,30.2453297 26.8713555,29 25,29 C23.2407513,29 21.9107232,30.1083568 20.8569534,32.7427814 C20.4467266,33.7683484 19.2827857,34.2671802 18.2572186,33.8569534 C17.2316516,33.4467266 16.7328198,32.2827857 17.1430466,31.2572186 C18.7559434,27.2249766 21.4259153,25 25,25 Z" id="Shape" fill="#000000" fill-rule="nonzero"></path>
    </g>
</svg>