<?xml version="1.0" encoding="utf-8"?>
<!-- Generator: Adobe Illustrator 26.2.1, SVG Export Plug-In . SVG Version: 6.00 Build 0)  -->
<svg version="1.1" id="Layer_2_00000156575256618879352310000016319795342622274194_"
	 xmlns="http://www.w3.org/2000/svg" xmlns:xlink="http://www.w3.org/1999/xlink" x="0px" y="0px" viewBox="0 0 500 154"
	 style="enable-background:new 0 0 500 154;" xml:space="preserve">
<style type="text/css">
	.st0{fill:#0E0F18;}
</style>
<path d="M257.9,150.2h-33V0h33V150.2L257.9,150.2z"/>
<path d="M51.2,111l16.7-66.6h34.7L68.1,150.2H34.5L0,44.4h34.8L51.2,111L51.2,111L51.2,111z"/>
<path d="M318.7,18.1v26.3h17.4v22.9h-17.4v48.4c0,4,0.7,6.7,2.2,8.3c1.4,1.6,4.3,2.3,8.5,2.3c4.2,0,6-0.2,8.2-0.6v23.6
	c-5.9,1.9-12.1,2.8-18.6,2.8c-11.3,0-19.7-2.7-25.1-8c-5.4-5.4-8.1-13.5-8.1-24.4V67.3h-13.5V44.4h13.5V18.1H318.7L318.7,18.1
	L318.7,18.1z"/>
<path d="M455.5,152.1c-16.2,0-29.3-4.8-39.4-14.5c-10-9.7-15.1-22.3-15.1-37.8v-2.7c0-10.8,2-20.4,6-28.6c4-8.3,9.9-14.7,17.6-19.2
	c7.7-4.6,16.8-6.8,27.3-6.8c10.5,0,26.6,4.6,35.2,13.9c8.6,9.2,12.9,22,12.9,38.5v12.8h-65.5c1.2,5.9,3.8,10.6,7.7,14
	c4,3.4,9.1,5.1,15.4,5.1c10.4,0,18.6-3.7,24.4-11l15.1,17.8c-4.1,5.7-9.9,10.2-17.5,13.6C472.2,150.5,464.1,152.1,455.5,152.1
	L455.5,152.1L455.5,152.1L455.5,152.1z M451.8,67.9c-9.6,0-15.4,6.4-17.2,19.2h33.2v-2.6c0.1-5.3-1.2-9.4-4-12.2
	C461,69.3,457,67.8,451.8,67.9L451.8,67.9C451.8,67.9,451.8,67.8,451.8,67.9L451.8,67.9L451.8,67.9L451.8,67.9z"/>
<rect x="350.9" y="44.4" width="33" height="105.8"/>
<ellipse cx="367.4" cy="16.8" rx="16.5" ry="16.4"/>
<path d="M257.9,150.2h-33V0h33V150.2L257.9,150.2z"/>
<path d="M51.2,111l16.7-66.6h34.7L68.1,150.2H34.5L0,44.4h34.8L51.2,111L51.2,111L51.2,111z"/>
<path d="M318.7,18.1v26.3h17.4v22.9h-17.4v48.4c0,4,0.7,6.7,2.2,8.3c1.4,1.6,4.3,2.3,8.5,2.3c4.2,0,6-0.2,8.2-0.6v23.6
	c-5.9,1.9-12.1,2.8-18.6,2.8c-11.3,0-19.7-2.7-25.1-8c-5.4-5.4-8.1-13.5-8.1-24.4V67.3h-13.5V44.4h13.5V18.1H318.7L318.7,18.1
	L318.7,18.1z"/>
<path d="M455.5,152.1c-16.2,0-29.3-4.8-39.4-14.5c-10-9.7-15.1-22.3-15.1-37.8v-2.7c0-10.8,2-20.4,6-28.6c4-8.3,9.9-14.7,17.6-19.2
	c7.7-4.6,16.8-6.8,27.3-6.8c10.5,0,26.6,4.6,35.2,13.9c8.6,9.2,12.9,22,12.9,38.5v12.8h-65.5c1.2,5.9,3.8,10.6,7.7,14
	c4,3.4,9.1,5.1,15.4,5.1c10.4,0,18.6-3.7,24.4-11l15.1,17.8c-4.1,5.7-9.9,10.2-17.5,13.6C472.2,150.5,464.1,152.1,455.5,152.1
	L455.5,152.1L455.5,152.1L455.5,152.1z M451.8,67.9c-9.6,0-15.4,6.4-17.2,19.2h33.2v-2.6c0.1-5.3-1.2-9.4-4-12.2
	C461,69.3,457,67.8,451.8,67.9L451.8,67.9C451.8,67.9,451.8,67.8,451.8,67.9L451.8,67.9L451.8,67.9L451.8,67.9z"/>
<rect x="350.9" y="44.4" width="33" height="105.8"/>
<ellipse cx="367.4" cy="16.8" rx="16.5" ry="16.4"/>
<g>
	<path class="st0" d="M158.8,42.7L158.8,42.7c-30.6,0-55.3,24.8-55.3,55.3s24.8,55.3,55.3,55.3s55.3-24.8,55.3-55.3
		S189.3,42.7,158.8,42.7z M158.7,147.3L158.7,147.3c-27.3,0-49.4-22.2-49.4-49.4s22.2-49.4,49.4-49.4s49.4,22.2,49.4,49.4
		S186,147.3,158.7,147.3z"/>
	<path class="st0" d="M158.7,51.9c-25.4,0-46,20.7-46,46s20.7,46,46,46s46-20.7,46-46S184.1,51.9,158.7,51.9z M149.3,79.1
		c0-0.1,0.1-0.2,0.2-0.2h2c0.1,0,0.2,0.1,0.2,0.2v12.5c0,0.1-0.1,0.2-0.2,0.2h-2c-0.1,0-0.2-0.1-0.2-0.2V79.1z M141.8,76.4
		c0-0.1,0.1-0.2,0.2-0.2h6.8c0.1,0,0.2,0.1,0.2,0.2v2c0,0.1-0.1,0.2-0.2,0.2H142c-0.1,0-0.2-0.1-0.2-0.2V76.4z M141.8,92.3
		c0-0.1,0.1-0.2,0.2-0.2h6.8c0.1,0,0.2,0.1,0.2,0.2v2c0,0.1-0.1,0.2-0.2,0.2H142c-0.1,0-0.2-0.1-0.2-0.2V92.3z M139.3,91.6V79.1
		c0-0.1,0.1-0.2,0.2-0.2h2c0.1,0,0.2,0.1,0.2,0.2v12.5c0,0.1-0.1,0.2-0.2,0.2h-2C139.3,91.8,139.3,91.7,139.3,91.6z M175.5,120.3
		L175.5,120.3L175.5,120.3c-5.3,1.8-10.9,2.8-16.5,2.8s-11.5-1-16.9-2.9c-0.7-0.2-1-1-0.8-1.7c0.2-0.7,1-1,1.7-0.8
		c5.1,1.8,10.5,2.8,16,2.8s10.7-0.9,15.7-2.6c0.7-0.2,1.4,0.1,1.6,0.8C176.5,119.4,176.1,120.1,175.5,120.3z M178.3,86.3
		c0,0.1-0.1,0.2-0.2,0.2h-12.5c-0.1,0-0.2-0.1-0.2-0.2v-2c0-0.1,0.1-0.2,0.2-0.2h12.5c0.1,0,0.2,0.1,0.2,0.2V86.3z"/>
</g>
</svg>
