<?xml version="1.0" encoding="utf-8"?>
<!-- Generator: Adobe Illustrator 26.2.1, SVG Export Plug-In . SVG Version: 6.00 Build 0)  -->
<svg version="1.1" id="Layer_2_00000033355345773737899550000001986635162567619247_"
	 xmlns="http://www.w3.org/2000/svg" xmlns:xlink="http://www.w3.org/1999/xlink" x="0px" y="0px" viewBox="0 0 300 300"
	 style="enable-background:new 0 0 300 300;" xml:space="preserve">
<style type="text/css">
	.st0{fill:#FFFFFF;}
</style>
<g>
	<path class="st0" d="M104.7,97.3h18.5c0.3,0,0.6-0.3,0.6-0.6v-5.3c0-0.3-0.3-0.6-0.6-0.6h-18.5c-0.3,0-0.6,0.3-0.6,0.6v5.3
		C104.1,97,104.4,97.3,104.7,97.3z"/>
	<path class="st0" d="M104.7,140.4h18.5c0.3,0,0.6-0.3,0.6-0.6v-5.3c0-0.3-0.3-0.6-0.6-0.6h-18.5c-0.3,0-0.6,0.3-0.6,0.6v5.3
		C104.1,140.1,104.4,140.4,104.7,140.4z"/>
	<path class="st0" d="M124.9,133.2h5.3c0.3,0,0.6-0.3,0.6-0.6v-34c0-0.3-0.3-0.6-0.6-0.6h-5.3c-0.3,0-0.6,0.3-0.6,0.6v34
		C124.3,132.9,124.6,133.2,124.9,133.2z"/>
	<path class="st0" d="M103.6,132.6v-34c0-0.3-0.3-0.6-0.6-0.6h-5.3c-0.3,0-0.6,0.3-0.6,0.6v34c0,0.3,0.3,0.5,0.6,0.6h5.3
		C103.3,133.2,103.6,132.9,103.6,132.6z"/>
	<path class="st0" d="M149.9,15.6c-73.9,0-134,60.1-134,134s60.1,134,134,134s134-60.1,134-134S223.8,15.6,149.9,15.6z M149.9,274.4
		c-68.8,0-124.8-56-124.8-124.8s56-124.8,124.8-124.8c68.9,0,124.8,56,124.8,124.8S218.7,274.4,149.9,274.4z"/>
	<path class="st0" d="M193,204c-13.6,4.7-27.6,7.1-42.5,7.1c-14.9,0-29.5-2.5-43.4-7.5c-1.8-0.7-3.9,0.2-4.5,2.1
		c-0.7,1.8,0.2,3.9,2.1,4.5c14.7,5.1,30.5,7.8,45.8,7.8s30.4-2.6,44.8-7.6c1.8-0.6,2.8-2.6,2.2-4.3C196.8,204.4,194.9,203.4,193,204
		z"/>
	<path class="st0" d="M202.4,112.3h-34c-0.3,0-0.6,0.3-0.6,0.6v5.3c0,0.3,0.3,0.6,0.6,0.6h34c0.3,0,0.6-0.3,0.6-0.6v-5.3
		C203,112.6,202.7,112.3,202.4,112.3z"/>
	<path class="st0" d="M150,4c80.5,0,146,65.5,146,146s-65.5,146-146,146S4,230.5,4,150S69.5,4,150,4 M150,0C67.2,0,0,67.2,0,150
		s67.2,150,150,150s150-67.2,150-150S232.8,0,150,0L150,0z"/>
</g>
</svg>
